<svg width="114" height="114" viewBox="0 0 114 114" fill="none" xmlns="http://www.w3.org/2000/svg">
<path d="M31.7155 99.0192C29.6906 99.0192 27.9665 98.3075 26.543 96.8841C25.1195 95.4606 24.4077 93.7364 24.4077 91.7116V50.4962C24.4077 48.4713 25.1195 46.7472 26.543 45.3237C27.9665 43.9002 29.6906 43.1884 31.7155 43.1884H38.5115V33.8611C38.5115 28.6884 40.3042 24.3094 43.8896 20.7241C47.475 17.1388 51.8451 15.3461 57.0001 15.3461C62.155 15.3461 66.5252 17.1388 70.1106 20.7241C73.6959 24.3094 75.4886 28.6884 75.4886 33.8611V43.1884H82.2847C84.3095 43.1884 86.0337 43.9002 87.4572 45.3237C88.8807 46.7472 89.5924 48.4713 89.5924 50.4962V91.7116C89.5924 93.7364 88.8807 95.4606 87.4572 96.8841C86.0337 98.3075 84.3095 99.0192 82.2847 99.0192H31.7155ZM31.7155 94.6346H82.2847C83.1372 94.6346 83.8375 94.3606 84.3856 93.8125C84.9337 93.2644 85.2077 92.5641 85.2077 91.7116V50.4962C85.2077 49.6436 84.9337 48.9432 84.3856 48.3952C83.8375 47.8471 83.1372 47.573 82.2847 47.573H31.7155C30.8629 47.573 30.1626 47.8471 29.6145 48.3952C29.0665 48.9432 28.7924 49.6436 28.7924 50.4962V91.7116C28.7924 92.5641 29.0665 93.2644 29.6145 93.8125C30.1626 94.3606 30.8629 94.6346 31.7155 94.6346ZM56.9924 78.0096C58.9335 78.0096 60.5711 77.3452 61.9049 76.0164C63.2389 74.6876 63.9059 73.0526 63.9059 71.1115C63.9059 69.1704 63.2415 67.5329 61.9127 66.199C60.5838 64.865 58.9489 64.198 57.0078 64.198C55.0666 64.198 53.4291 64.8624 52.0952 66.1913C50.7613 67.5201 50.0943 69.1551 50.0943 71.0962C50.0943 73.0373 50.7587 74.6748 52.0875 76.0088C53.4163 77.3427 55.0513 78.0096 56.9924 78.0096ZM42.8963 43.1884H71.1039V33.8233C71.1039 29.9212 69.7335 26.5969 66.9928 23.8505C64.252 21.104 60.924 19.7308 57.0086 19.7308C53.0933 19.7308 49.7624 21.1037 47.0159 23.8496C44.2695 26.5956 42.8963 29.93 42.8963 33.8529V43.1884Z" fill="#00739A"/>
</svg>
