<svg width="143" height="201" viewBox="0 0 143 201" fill="none" xmlns="http://www.w3.org/2000/svg">
<g clip-path="url(#clip0_1_480)">
<path d="M126.302 56.9458V39.6513L67.5962 7L9 39.9072V111.572L67.6326 144.004L126.229 111.096V56.9458H126.302ZM97.9497 94.0213L67.6326 110.95L37.3882 94.0578V56.9824L67.7054 40.0535L98.1317 56.9458L97.9497 94.0213Z" fill="white"/>
<path d="M97.9133 94.0212L135 94.0578V56.9092L98.0225 56.9457L97.9133 94.0212Z" fill="#E63329"/>
<path d="M129.723 80.0175L129.686 70.9497H121.024V62.2476H111.998V70.9497H103.3V80.0175H111.998V88.7561H121.024V80.0175H129.723Z" fill="white"/>
</g>
<path d="M18.6885 183.891C18.6885 183.326 18.5999 182.828 18.4229 182.396C18.2568 181.954 17.958 181.555 17.5264 181.201C17.1058 180.847 16.5192 180.509 15.7666 180.188C15.0251 179.868 14.0843 179.541 12.9443 179.209C11.749 178.855 10.6699 178.462 9.70703 178.03C8.74414 177.588 7.9196 177.084 7.2334 176.52C6.5472 175.955 6.02148 175.308 5.65625 174.577C5.29102 173.847 5.1084 173.011 5.1084 172.07C5.1084 171.13 5.30208 170.261 5.68945 169.464C6.07682 168.667 6.63021 167.975 7.34961 167.389C8.08008 166.791 8.94889 166.326 9.95605 165.994C10.9632 165.662 12.0866 165.496 13.3262 165.496C15.1413 165.496 16.6797 165.845 17.9414 166.542C19.2142 167.228 20.1826 168.13 20.8467 169.248C21.5107 170.355 21.8428 171.539 21.8428 172.801H18.6553C18.6553 171.893 18.4616 171.091 18.0742 170.394C17.6868 169.685 17.1003 169.132 16.3145 168.733C15.5286 168.324 14.5326 168.119 13.3262 168.119C12.1862 168.119 11.2454 168.291 10.5039 168.634C9.76237 168.977 9.20898 169.442 8.84375 170.028C8.48958 170.615 8.3125 171.285 8.3125 172.037C8.3125 172.546 8.41764 173.011 8.62793 173.432C8.84928 173.841 9.18685 174.223 9.64062 174.577C10.1055 174.931 10.6921 175.258 11.4004 175.557C12.1198 175.855 12.9775 176.143 13.9736 176.42C15.346 176.807 16.5303 177.239 17.5264 177.715C18.5225 178.191 19.3415 178.728 19.9834 179.325C20.6364 179.912 21.1178 180.581 21.4277 181.334C21.7487 182.076 21.9092 182.917 21.9092 183.857C21.9092 184.842 21.71 185.733 21.3115 186.53C20.9131 187.327 20.3431 188.008 19.6016 188.572C18.86 189.137 17.9691 189.574 16.9287 189.884C15.8994 190.183 14.7484 190.332 13.4756 190.332C12.3577 190.332 11.2565 190.177 10.1719 189.867C9.09831 189.557 8.11882 189.092 7.2334 188.473C6.35905 187.853 5.65625 187.089 5.125 186.182C4.60482 185.263 4.34473 184.201 4.34473 182.994H7.53223C7.53223 183.824 7.69271 184.538 8.01367 185.136C8.33464 185.722 8.77181 186.209 9.3252 186.597C9.88965 186.984 10.526 187.272 11.2344 187.46C11.9538 187.637 12.7008 187.726 13.4756 187.726C14.5934 187.726 15.5397 187.571 16.3145 187.261C17.0892 186.951 17.6758 186.508 18.0742 185.933C18.4837 185.357 18.6885 184.676 18.6885 183.891ZM28.6162 164.5V190H25.5283V164.5H28.6162ZM39.5898 172.037L31.7539 180.421L27.3711 184.97L27.1221 181.699L30.2598 177.947L35.8379 172.037H39.5898ZM36.7842 190L30.376 181.434L31.9697 178.694L40.4033 190H36.7842ZM47.8076 188.141L52.8047 172.037H56.0918L48.8867 192.772C48.7207 193.215 48.4993 193.691 48.2227 194.2C47.957 194.72 47.6139 195.213 47.1934 195.678C46.7728 196.143 46.2637 196.519 45.666 196.807C45.0794 197.105 44.3766 197.255 43.5576 197.255C43.3141 197.255 43.0042 197.222 42.6279 197.155C42.2516 197.089 41.986 197.034 41.8311 196.989L41.8145 194.499C41.903 194.51 42.0413 194.521 42.2295 194.532C42.4287 194.554 42.5671 194.565 42.6445 194.565C43.3418 194.565 43.9339 194.471 44.4209 194.283C44.9079 194.106 45.3174 193.802 45.6494 193.37C45.9925 192.95 46.2858 192.368 46.5293 191.627L47.8076 188.141ZM44.1387 172.037L48.8037 185.982L49.6006 189.22L47.3926 190.349L40.7852 172.037H44.1387ZM77.1924 177.964V186.812C76.8936 187.255 76.4176 187.753 75.7646 188.307C75.1117 188.849 74.2096 189.325 73.0586 189.734C71.9186 190.133 70.4466 190.332 68.6426 190.332C67.1706 190.332 65.8148 190.077 64.5752 189.568C63.3467 189.048 62.2786 188.296 61.3711 187.311C60.4746 186.314 59.7773 185.108 59.2793 183.691C58.7923 182.264 58.5488 180.648 58.5488 178.844V176.968C58.5488 175.164 58.7591 173.553 59.1797 172.137C59.6113 170.72 60.2422 169.519 61.0723 168.534C61.9023 167.538 62.9206 166.785 64.127 166.276C65.3333 165.756 66.7168 165.496 68.2773 165.496C70.1257 165.496 71.6696 165.817 72.9092 166.459C74.1598 167.09 75.1338 167.964 75.8311 169.082C76.5394 170.2 76.9932 171.473 77.1924 172.9H73.9883C73.8444 172.026 73.5566 171.229 73.125 170.51C72.7044 169.79 72.1012 169.215 71.3154 168.783C70.5296 168.34 69.5169 168.119 68.2773 168.119C67.1595 168.119 66.1911 168.324 65.3721 168.733C64.5531 169.143 63.8779 169.729 63.3467 170.493C62.8154 171.257 62.417 172.181 62.1514 173.266C61.8968 174.35 61.7695 175.573 61.7695 176.935V178.844C61.7695 180.238 61.93 181.483 62.251 182.579C62.583 183.675 63.0534 184.61 63.6621 185.385C64.2708 186.148 64.9958 186.729 65.8369 187.128C66.6891 187.526 67.6299 187.726 68.6592 187.726C69.7992 187.726 70.7233 187.632 71.4316 187.443C72.14 187.244 72.6934 187.012 73.0918 186.746C73.4902 186.469 73.7946 186.209 74.0049 185.966V180.554H68.4102V177.964H77.1924ZM92.6318 186.929V177.682C92.6318 176.973 92.488 176.359 92.2002 175.839C91.9235 175.308 91.5029 174.898 90.9385 174.61C90.374 174.323 89.6768 174.179 88.8467 174.179C88.0719 174.179 87.3913 174.312 86.8047 174.577C86.2292 174.843 85.7754 175.191 85.4434 175.623C85.1224 176.055 84.9619 176.52 84.9619 177.018H81.8906C81.8906 176.376 82.0566 175.739 82.3887 175.108C82.7207 174.478 83.1966 173.908 83.8164 173.398C84.4473 172.878 85.1999 172.469 86.0742 172.17C86.9596 171.86 87.9447 171.705 89.0293 171.705C90.3353 171.705 91.4863 171.926 92.4824 172.369C93.4896 172.812 94.2754 173.481 94.8398 174.378C95.4154 175.263 95.7031 176.376 95.7031 177.715V186.082C95.7031 186.68 95.7529 187.316 95.8525 187.991C95.9632 188.666 96.1237 189.247 96.334 189.734V190H93.1299C92.9749 189.646 92.8532 189.175 92.7646 188.589C92.6761 187.991 92.6318 187.438 92.6318 186.929ZM93.1631 179.109L93.1963 181.268H90.0918C89.2174 181.268 88.4372 181.34 87.751 181.483C87.0648 181.616 86.4893 181.821 86.0244 182.098C85.5596 182.374 85.2054 182.723 84.9619 183.144C84.7184 183.553 84.5967 184.035 84.5967 184.588C84.5967 185.152 84.724 185.667 84.9785 186.132C85.2331 186.597 85.6149 186.967 86.124 187.244C86.6442 187.51 87.2806 187.643 88.0332 187.643C88.974 187.643 89.804 187.443 90.5234 187.045C91.2428 186.646 91.8128 186.16 92.2334 185.584C92.665 185.008 92.8975 184.45 92.9307 183.907L94.2422 185.385C94.1647 185.85 93.9544 186.364 93.6113 186.929C93.2682 187.493 92.8089 188.035 92.2334 188.556C91.6689 189.065 90.9938 189.491 90.208 189.834C89.4333 190.166 88.5589 190.332 87.585 190.332C86.3675 190.332 85.2995 190.094 84.3809 189.618C83.4733 189.142 82.765 188.506 82.2559 187.709C81.7578 186.901 81.5088 185.999 81.5088 185.003C81.5088 184.04 81.6969 183.193 82.0732 182.463C82.4495 181.721 82.9919 181.107 83.7002 180.62C84.4085 180.122 85.2607 179.746 86.2568 179.491C87.2529 179.237 88.3652 179.109 89.5938 179.109H93.1631ZM108.055 172.037V174.395H98.3428V172.037H108.055ZM101.63 167.671H104.701V185.551C104.701 186.16 104.795 186.619 104.983 186.929C105.172 187.239 105.415 187.443 105.714 187.543C106.013 187.643 106.334 187.692 106.677 187.692C106.931 187.692 107.197 187.67 107.474 187.626C107.761 187.571 107.977 187.526 108.121 187.493L108.138 190C107.894 190.077 107.573 190.149 107.175 190.216C106.787 190.293 106.317 190.332 105.764 190.332C105.011 190.332 104.319 190.183 103.688 189.884C103.058 189.585 102.554 189.087 102.178 188.39C101.812 187.681 101.63 186.729 101.63 185.534V167.671ZM119.111 190.332C117.861 190.332 116.726 190.122 115.708 189.701C114.701 189.27 113.832 188.666 113.102 187.892C112.382 187.117 111.829 186.198 111.441 185.136C111.054 184.073 110.86 182.911 110.86 181.649V180.952C110.86 179.491 111.076 178.191 111.508 177.051C111.939 175.9 112.526 174.926 113.268 174.129C114.009 173.332 114.85 172.729 115.791 172.319C116.732 171.91 117.706 171.705 118.713 171.705C119.997 171.705 121.104 171.926 122.033 172.369C122.974 172.812 123.743 173.432 124.341 174.229C124.938 175.014 125.381 175.944 125.669 177.018C125.957 178.08 126.101 179.242 126.101 180.504V181.882H112.687V179.375H123.029V179.143C122.985 178.346 122.819 177.571 122.531 176.818C122.255 176.066 121.812 175.446 121.203 174.959C120.594 174.472 119.764 174.229 118.713 174.229C118.016 174.229 117.374 174.378 116.787 174.677C116.201 174.965 115.697 175.396 115.276 175.972C114.856 176.547 114.529 177.25 114.297 178.08C114.064 178.91 113.948 179.868 113.948 180.952V181.649C113.948 182.502 114.064 183.304 114.297 184.057C114.54 184.798 114.889 185.451 115.343 186.016C115.808 186.58 116.367 187.023 117.02 187.344C117.684 187.665 118.436 187.825 119.277 187.825C120.362 187.825 121.281 187.604 122.033 187.161C122.786 186.718 123.444 186.126 124.009 185.385L125.868 186.862C125.481 187.449 124.988 188.008 124.391 188.539C123.793 189.07 123.057 189.502 122.183 189.834C121.319 190.166 120.296 190.332 119.111 190.332Z" fill="white"/>
<defs>
<clipPath id="clip0_1_480">
<rect width="126" height="137" fill="white" transform="translate(9 7)"/>
</clipPath>
</defs>
</svg>
