<svg width="242" height="242" viewBox="0 0 242 242" fill="none" xmlns="http://www.w3.org/2000/svg">
<g id="task_alt_FILL1_wght400_GRAD0_opsz48 1">
<path id="Vector" d="M121 221.833C107.051 221.833 93.943 219.187 81.675 213.893C69.4069 208.599 58.7354 201.415 49.6604 192.34C40.5854 183.265 33.401 172.593 28.1073 160.325C22.8135 148.057 20.1667 134.949 20.1667 121C20.1667 107.051 22.8135 93.9431 28.1073 81.6751C33.401 69.407 40.5854 58.7355 49.6604 49.6605C58.7354 40.5855 69.4069 33.4011 81.675 28.1074C93.943 22.8136 107.051 20.1667 121 20.1667C131.587 20.1667 141.629 21.6792 151.124 24.7042C160.619 27.7292 169.4 31.9306 177.467 37.3084L162.09 52.6855C156.04 49.1563 149.569 46.3834 142.679 44.3667C135.789 42.3501 128.562 41.3417 121 41.3417C98.9847 41.3417 80.2045 49.1143 64.6594 64.6595C49.1142 80.2046 41.3417 98.9848 41.3417 121C41.3417 143.015 49.1142 161.796 64.6594 177.341C80.2045 192.886 98.9847 200.658 121 200.658C143.015 200.658 161.795 192.886 177.341 177.341C192.886 161.796 200.658 143.015 200.658 121C200.658 118.143 200.532 115.412 200.28 112.807C200.028 110.203 199.65 107.64 199.146 105.119L216.287 87.9772C218.136 93.1869 219.523 98.5227 220.447 103.984C221.371 109.446 221.833 115.118 221.833 121C221.833 134.949 219.186 148.057 213.893 160.325C208.599 172.593 201.415 183.265 192.34 192.34C183.265 201.415 172.593 208.599 160.325 213.893C148.057 219.187 134.949 221.833 121 221.833ZM107.135 167.131L64.0292 123.773L78.9021 108.9L107.387 137.385L206.96 37.8126L221.833 52.4334L107.135 167.131Z" fill="white"/>
</g>
</svg>
